# xmcd CD database file
#
# Track frame offsets:
#	210
#	12707
#	26222
#	38244
#	51413
#	65951
#	77876
#	92927
#	108165
#	121586
#	135653
#	151046
#	163995
#	179133
#	193434
#	206281
#	220098
#	234308
#	249620
#	262737
#	276522
#	289555
#
# Disc length: 4029 seconds
#
# Revision: 0
# Processed by: cddbd v1.5.2PL0 Copyright (c) Steve Scherf et al.
# Submitted via: CDex 1.51
#
DISCID=4d0fbb16
DTITLE=Johnny Dodds - 1926 - 1929
DYEAR=2001
DGENRE=Jazz
TTITLE0=What a man
TTITLE1=Little Bits
TTITLE2=Struggling
TTITLE3=Messin Around
TTITLE4=47th street stomp
TTITLE5=Salty dog
TTITLE6=Carpet alley-breakdown
TTITLE7=Hen party blues
TTITLE8=Oh Lizzie
TTITLE9=Wild man blues
TTITLE10=Melancholy
TTITLE11=Oriental man
TTITLE12=Blue clarinet stomp
TTITLE13=Too tight
TTITLE14=Sweet Lorraine
TTITLE15=My little Isabel
TTITLE16=Heath me talkin
TTITLE17=Goober dance
TTITLE18=Too tight II
TTITLE19=Indigo stomp
TTITLE20=Forty and tight
TTITLE21=Piggly wiggly
EXTD=YEAR: 2001
EXTT0=
EXTT1=
EXTT2=
EXTT3=
EXTT4=
EXTT5=
EXTT6=
EXTT7=
EXTT8=
EXTT9=
EXTT10=
EXTT11=
EXTT12=
EXTT13=
EXTT14=
EXTT15=
EXTT16=
EXTT17=
EXTT18=
EXTT19=
EXTT20=
EXTT21=
PLAYORDER=
